<?xml version="1.0" standalone="no"?><!DOCTYPE svg PUBLIC "-//W3C//DTD SVG 1.1//EN" "http://www.w3.org/Graphics/SVG/1.1/DTD/svg11.dtd"><svg t="1563931603132" class="icon" viewBox="0 0 1024 1024" version="1.1" xmlns="http://www.w3.org/2000/svg" p-id="2205" xmlns:xlink="http://www.w3.org/1999/xlink" width="32" height="32"><defs><style type="text/css"></style></defs><path d="M100.32 332.07l71.61-67.92 42.99 40.75-71.62 67.92 42.96 40.75 71.64-67.92 42.98 40.75-71.64 67.92 14.82 35.36 223.3-223.3-152.17-165.21c-23.36-22.16-70.12-15.01-93.47 7.15L78.47 244.15c-23.38 22.16-15.83 52.9 7.53 75.06l14.32 12.86zM85.99 892.53c-5.27 15.01 9.05 28.59 24.88 23.59l261.62-82.92-200.56-190.16-85.94 249.49zM936.43 299.9c21.87-20.73 21.87-52.9 0-71.49L811.28 109.75c-21.86-20.73-55.78-20.73-75.4 0l-91.23 86.5L845.21 386.4l91.22-86.5z m-320.42-76.49l-415.42 393.9 200.56 190.15 415.41-393.89-200.55-190.16zM945.48 698.8L759.26 522.23 530.07 739.55l42.96 40.75 71.61-67.92 43 40.75L616 821.05l42.96 40.75 71.64-67.92 42.98 40.75-71.64 67.92 14.33 13.58c23.38 22.16 55.78 28.6 79.16 6.44L938.7 786.73c22.61-22.88 30.16-65.77 6.78-87.93z" p-id="2206"></path></svg>